<svg xmlns="http://www.w3.org/2000/svg" viewBox="0 0 960 440" role="img" aria-label="skills-house monorepo layout">
  <defs>
    <linearGradient id="bg3" x1="0%" y1="0%" x2="100%" y2="100%">
      <stop offset="0%" stop-color="#0f1419"/>
      <stop offset="100%" stop-color="#1a2332"/>
    </linearGradient>
    <style>
      .box { fill: #161b22; stroke: #30363d; stroke-width: 2; rx: 10; }
      .title { fill: #f0f6fc; font: 600 14px system-ui, sans-serif; }
      .mono { fill: #c9d1d9; font: 12px ui-monospace, monospace; }
      .muted { fill: #8b949e; font: 11px system-ui, sans-serif; }
      .credit { fill: #484f58; font: 10px system-ui, sans-serif; }
      .line { stroke: #58a6ff; stroke-width: 1.5; fill: none; opacity: 0.6; }
    </style>
  </defs>
  <rect width="960" height="440" fill="url(#bg3)"/>
  <text x="480" y="34" text-anchor="middle" class="title" font-size="18">Monorepo workspaces</text>

  <rect x="40" y="70" width="170" height="110" class="box"/>
  <text x="125" y="98" text-anchor="middle" class="title">skills/</text>
  <text x="60" y="125" class="mono">skill-auditor/</text>
  <text x="60" y="145" class="mono">SKILL.md</text>
  <text x="60" y="165" class="muted">Authoring source</text>

  <rect x="40" y="210" width="170" height="110" class="box"/>
  <text x="125" y="238" text-anchor="middle" class="title">scripts/</text>
  <text x="60" y="265" class="mono">fixture-helper/</text>
  <text x="60" y="285" class="mono">exports</text>
  <text x="60" y="305" class="muted">Shared execution</text>

  <rect x="260" y="70" width="220" height="250" class="box"/>
  <text x="370" y="98" text-anchor="middle" class="title">Framework packages</text>
  <text x="280" y="128" class="mono">@skills-house/build</text>
  <text x="280" y="148" class="muted">compile source → dist</text>
  <text x="280" y="178" class="mono">@skills-house/install</text>
  <text x="280" y="198" class="muted">dist → agent directories</text>
  <text x="280" y="228" class="mono">@skills-house/create</text>
  <text x="280" y="248" class="muted">scaffold new projects</text>
  <text x="280" y="278" class="muted">Published to npm via git tags</text>

  <rect x="530" y="70" width="170" height="110" class="box"/>
  <text x="615" y="98" text-anchor="middle" class="title">skills-dist/</text>
  <text x="550" y="125" class="mono">Generated output</text>
  <text x="550" y="145" class="mono">Agent Skills layout</text>
  <text x="550" y="165" class="muted">Built by @skills-house/build</text>

  <rect x="530" y="210" width="170" height="110" class="box"/>
  <text x="615" y="238" text-anchor="middle" class="title">install targets</text>
  <text x="550" y="265" class="mono">~/.cursor/skills/</text>
  <text x="550" y="285" class="mono">.agents/skills/</text>
  <text x="550" y="305" class="muted">via @skills-house/install</text>

  <rect x="760" y="140" width="160" height="110" class="box"/>
  <text x="840" y="168" text-anchor="middle" class="title">agents</text>
  <text x="775" y="195" class="mono">Cursor</text>
  <text x="775" y="215" class="mono">Claude</text>
  <text x="775" y="235" class="mono">Codex</text>

  <line x1="210" y1="125" x2="260" y2="140" class="line"/>
  <line x1="210" y1="265" x2="260" y2="220" class="line"/>
  <line x1="480" y1="140" x2="530" y2="125" class="line"/>
  <line x1="700" y1="125" x2="760" y2="180" class="line"/>
  <line x1="615" y1="180" x2="615" y2="210" class="line"/>
  <line x1="480" y1="230" x2="530" y2="265" class="line"/>
  <line x1="700" y1="265" x2="760" y2="210" class="line"/>

  <text x="948" y="432" text-anchor="end" class="credit">al4f.dev</text>
</svg>
