<svg xmlns="http://www.w3.org/2000/svg" viewBox="0 0 900 420" role="img" aria-label="skills-house monorepo layout">
  <defs>
    <linearGradient id="bg3" x1="0%" y1="0%" x2="100%" y2="100%">
      <stop offset="0%" stop-color="#0f1419"/>
      <stop offset="100%" stop-color="#1a2332"/>
    </linearGradient>
    <style>
      .box { fill: #161b22; stroke: #30363d; stroke-width: 2; rx: 10; }
      .title { fill: #f0f6fc; font: 600 14px system-ui, sans-serif; }
      .mono { fill: #c9d1d9; font: 12px ui-monospace, monospace; }
      .muted { fill: #8b949e; font: 11px system-ui, sans-serif; }
      .credit { fill: #484f58; font: 10px system-ui, sans-serif; }
      .line { stroke: #58a6ff; stroke-width: 1.5; fill: none; opacity: 0.6; }
    </style>
  </defs>
  <rect width="900" height="420" fill="url(#bg3)"/>
  <text x="450" y="34" text-anchor="middle" class="title" font-size="18">Monorepo workspaces</text>

  <rect x="40" y="70" width="180" height="120" class="box"/>
  <text x="130" y="98" text-anchor="middle" class="title">skills/</text>
  <text x="60" y="125" class="mono">brainstorming/</text>
  <text x="60" y="145" class="mono">skill-auditor/</text>
  <text x="60" y="170" class="muted">Authoring entry: SKILL.md</text>

  <rect x="40" y="220" width="180" height="120" class="box"/>
  <text x="130" y="248" text-anchor="middle" class="title">scripts/</text>
  <text x="60" y="275" class="mono">visual-companion/</text>
  <text x="60" y="295" class="mono">fixture-helper/</text>
  <text x="60" y="320" class="muted">Shared execution packages</text>

  <rect x="280" y="145" width="200" height="120" class="box"/>
  <text x="380" y="173" text-anchor="middle" class="title">internal-scripts/build</text>
  <text x="300" y="200" class="mono">@skills-house/build</text>
  <text x="300" y="225" class="muted">Marker parser, bundler,</text>
  <text x="300" y="245" class="muted">dist writer</text>

  <rect x="540" y="70" width="180" height="120" class="box"/>
  <text x="630" y="98" text-anchor="middle" class="title">skills-dist/</text>
  <text x="560" y="125" class="mono">Generated artifacts</text>
  <text x="560" y="145" class="mono">Agent Skills layout</text>
  <text x="560" y="170" class="muted">Committed in v1</text>

  <rect x="540" y="220" width="180" height="120" class="box"/>
  <text x="630" y="248" text-anchor="middle" class="title">install/</text>
  <text x="560" y="275" class="mono">install-skills.sh</text>
  <text x="560" y="295" class="mono">multi-agent paths</text>
  <text x="560" y="320" class="muted">global + project scope</text>

  <rect x="780" y="145" width="100" height="120" class="box"/>
  <text x="830" y="173" text-anchor="middle" class="title">agents</text>
  <text x="795" y="200" class="mono">~/.cursor/</text>
  <text x="795" y="220" class="mono">~/.claude/</text>
  <text x="795" y="240" class="mono">.agents/</text>

  <line x1="220" y1="130" x2="280" y2="180" class="line"/>
  <line x1="220" y1="280" x2="280" y2="220" class="line"/>
  <line x1="480" y1="205" x2="540" y2="130" class="line"/>
  <line x1="720" y1="130" x2="780" y2="190" class="line"/>
  <line x1="630" y1="190" x2="630" y2="220" class="line"/>

  <text x="888" y="412" text-anchor="end" class="credit">al4f.dev</text>
</svg>
